<?xml version="1.0" encoding="utf-8"?>
<svg id="master-artboard" viewBox="0 0 64 64" version="1.1" xmlns="http://www.w3.org/2000/svg" x="0px" y="0px" style="enable-background:new 0 0 1400 980;" width="64px" height="64px">
    <defs>
        <radialGradient id="gradient-0" gradientUnits="objectBoundingBox" cx="0.5" cy="0.5" r="0.5" gradientTransform="matrix(1.021052360534668, 0, 0, 1, -0.010526180267333984, 0)">
            <stop offset="0" style="stop-color: #ff0000" />
            <stop offset="1" style="stop-color: #990000" />
        </radialGradient>
        <radialGradient id="gradient-1" gradientUnits="objectBoundingBox" cx="0.5" cy="0.5" r="0.5">
            <stop offset="0" style="stop-color: #ffffff" />
            <stop offset="1" style="stop-color: #cccccc" />
        </radialGradient>
    </defs>
    <rect id="ee-background" x="0" y="0" width="64" height="64" style="fill: white; fill-opacity: 0; pointer-events: none;" />
    <g transform="matrix(0.5766666019058903, 0, 0, 0.5766666019058903, -344.31995537143956, -23.693328049624686)">
        <g id="g-1" transform="matrix(1, 0, 0, 1, 0, 0)">
            <g id="g-2">
                <path class="st0" d="M652,46c27.6,0,50,22.4,50,50s-22.4,50-50,50s-50-22.4-50-50S624.4,46,652,46z" style="fill: url('#gradient-0'); stroke: rgb(0, 187, 0); stroke-width: 5; paint-order: fill;" />
            </g>
        </g>
    </g>
    <path d="M 4.230000019073486 3.3400001525878906 C 4.230000019073486 2.593334197998047 4.336666584014893 1.8933334350585938 4.550000190734863 1.239999771118164 C 4.756666660308838 0.5799999237060547 5.039999961853027 0.0066661834716796875 5.400000095367432 -0.4799995422363281 C 5.760000228881836 -0.9666671752929688 6.179999828338623 -1.3466663360595703 6.659999847412109 -1.6200008392333984 C 7.139999866485596 -1.8933334350585938 7.6533331871032715 -2.029998779296875 8.199999809265137 -2.029998779296875 L 25.1200008392334 -2.029998779296875 L 25.1200008392334 1.5400009155273438 L 9.279999732971191 1.5400009155273438 L 9.279999732971191 26.360000610351562 L 20.149999618530273 26.360000610351562 L 20.149999618530273 11.329999923706055 L 25.15999984741211 11.329999923706055 L 25.1200008392334 32.470001220703125 C 25.1200008392334 33.189998626708984 25.016666412353516 33.869998931884766 24.809999465942383 34.51000213623047 C 24.60333251953125 35.15666580200195 24.323333740234375 35.72333526611328 23.969999313354492 36.209999084472656 C 23.623332977294922 36.689998626708984 23.209999084472656 37.073333740234375 22.729999542236328 37.36000061035156 C 22.25 37.63999938964844 21.74333381652832 37.779998779296875 21.209999084472656 37.779998779296875 L 20.149999618530273 37.779998779296875 L 20.149999618530273 30 L 8.199999809265137 30 C 7.6533331871032715 30 7.139999866485596 29.860000610351562 6.659999847412109 29.579999923706055 C 6.179999828338623 29.293333053588867 5.760000228881836 28.913333892822266 5.400000095367432 28.440000534057617 C 5.039999961853027 27.959999084472656 4.756666660308838 27.393333435058594 4.550000190734863 26.739999771118164 C 4.336666584014893 26.093334197998047 4.230000019073486 25.40333366394043 4.230000019073486 24.670000076293945 L 4.230000019073486 3.3400001525878906 ZM 33.3578987121582 1.5400009155273438 L 27.77789878845215 1.5400009155273438 C 27.83789825439453 1.0466670989990234 27.974565505981445 0.5833339691162109 28.187898635864258 0.14999961853027344 C 28.40789794921875 -0.29000091552734375 28.6845645904541 -0.6733341217041016 29.017898559570312 -1 C 29.34456443786621 -1.333333969116211 29.72123146057129 -1.5966663360595703 30.147897720336914 -1.7900009155273438 C 30.56789779663086 -1.9766674041748047 31.01123046875 -2.0699996948242188 31.47789764404297 -2.0699996948242188 L 38.41790008544922 -2.0699996948242188 L 38.41790008544922 26.360000610351562 L 46.23789978027344 26.360000610351562 L 46.23789978027344 -2.0699996948242188 L 51.307899475097656 -2.0699996948242188 L 51.307899475097656 26.360000610351562 L 59.127899169921875 26.360000610351562 L 59.127899169921875 -2.0699996948242188 L 64.18789672851562 -2.0699996948242188 L 64.18789672851562 24.630001068115234 C 64.18789672851562 25.376667022705078 64.08123016357422 26.073333740234375 63.867897033691406 26.719999313354492 C 63.654563903808594 27.373332977294922 63.36456298828125 27.940000534057617 62.99789810180664 28.420000076293945 C 62.63123321533203 28.906665802001953 62.20456314086914 29.293333053588867 61.717899322509766 29.579999923706055 C 61.231231689453125 29.860000610351562 60.7078971862793 30 60.14789581298828 30 L 52.257896423339844 30 C 51.571231842041016 30 50.91790008544922 29.763334274291992 50.29789733886719 29.290000915527344 C 49.67789840698242 28.816667556762695 49.161231994628906 28.18000030517578 48.74789810180664 27.380001068115234 C 48.34123229980469 28.18000030517578 47.82789611816406 28.816667556762695 47.2078971862793 29.290000915527344 C 46.58789825439453 29.763334274291992 45.93122863769531 30 45.23789978027344 30 L 37.39789581298828 30 C 36.85123062133789 30 36.33123016357422 29.860000610351562 35.83789825439453 29.579999923706055 C 35.344566345214844 29.293333053588867 34.91456604003906 28.906665802001953 34.54789733886719 28.420000076293945 C 34.18123245239258 27.940000534057617 33.891231536865234 27.373332977294922 33.67789840698242 26.719999313354492 C 33.46456527709961 26.073333740234375 33.3578987121582 25.376667022705078 33.3578987121582 24.630001068115234 L 33.3578987121582 1.5400009155273438 Z" transform="matrix(0.8630796074867249, 0, 0, 0.8630796074867249, 2.4166717529296875, 18.60683250427246)" style="fill: rgb(255, 255, 255); white-space: pre; color: rgb(255, 0, 0);" />
</svg>
