<?xml version="1.0" encoding="utf-8"?>
<svg id="master-artboard" viewBox="0 0 260 260" version="1.1" xmlns="http://www.w3.org/2000/svg" x="0px" y="0px" style="enable-background:new 0 0 1400 980;" width="260px" height="260px"><defs><style id="ee-google-fonts">@import url(https://fonts.googleapis.com/css?family=Atomic+Age:400);</style><radialGradient id="gradient-0" gradientUnits="objectBoundingBox" cx="0.5" cy="0.5" r="0.5" gradientTransform="matrix(1.021052360534668, 0, 0, 1, -0.010526180267333984, 0)">
                <stop offset="0" style="stop-color: #ff0000"/>
                <stop offset="1" style="stop-color: #990000"/>
              </radialGradient><radialGradient id="gradient-1" gradientUnits="objectBoundingBox" cx="0.5" cy="0.5" r="0.5">
                <stop offset="0" style="stop-color: #ffffff"/>
                <stop offset="1" style="stop-color: #cccccc"/>
              </radialGradient></defs><rect id="ee-background" x="0" y="0" width="260" height="260" style="fill: white; fill-opacity: 0; pointer-events: none;"/><g transform="matrix(4.062327861785889, 0, 0, 4.062659740447998, -0.24808452207957998, 0.8592030514729458)"><g transform="matrix(0.5766665935516357, 0, 0, 0.5766665935516357, -344.3199462890625, -23.693328857421875)"><g id="g-1" transform="matrix(1, 0, 0, 1, 0, 0)">
	<g id="g-2">
		<path class="st0" d="M652,46c27.6,0,50,22.4,50,50s-22.4,50-50,50s-50-22.4-50-50S624.4,46,652,46z" style="fill: url('#gradient-0'); stroke: rgb(0, 187, 0); stroke-width: 5; paint-order: fill;"/>
	</g>
</g></g><path d="M 4.230000019073486 3.3400001525878906 C 4.230000019073486 2.593334197998047 4.336666584014893 1.8933334350585938 4.550000190734863 1.239999771118164 C 4.756666660308838 0.5799999237060547 5.039999961853027 0.0066661834716796875 5.400000095367432 -0.4799995422363281 C 5.760000228881836 -0.9666671752929688 6.179999828338623 -1.3466663360595703 6.659999847412109 -1.6200008392333984 C 7.139999866485596 -1.8933334350585938 7.6533331871032715 -2.029998779296875 8.199999809265137 -2.029998779296875 L 25.1200008392334 -2.029998779296875 L 25.1200008392334 1.5400009155273438 L 9.279999732971191 1.5400009155273438 L 9.279999732971191 26.360000610351562 L 20.149999618530273 26.360000610351562 L 20.149999618530273 11.329999923706055 L 25.15999984741211 11.329999923706055 L 25.1200008392334 32.470001220703125 C 25.1200008392334 33.189998626708984 25.016666412353516 33.869998931884766 24.809999465942383 34.51000213623047 C 24.60333251953125 35.15666580200195 24.323333740234375 35.72333526611328 23.969999313354492 36.209999084472656 C 23.623332977294922 36.689998626708984 23.209999084472656 37.073333740234375 22.729999542236328 37.36000061035156 C 22.25 37.63999938964844 21.74333381652832 37.779998779296875 21.209999084472656 37.779998779296875 L 20.149999618530273 37.779998779296875 L 20.149999618530273 30 L 8.199999809265137 30 C 7.6533331871032715 30 7.139999866485596 29.860000610351562 6.659999847412109 29.579999923706055 C 6.179999828338623 29.293333053588867 5.760000228881836 28.913333892822266 5.400000095367432 28.440000534057617 C 5.039999961853027 27.959999084472656 4.756666660308838 27.393333435058594 4.550000190734863 26.739999771118164 C 4.336666584014893 26.093334197998047 4.230000019073486 25.40333366394043 4.230000019073486 24.670000076293945 L 4.230000019073486 3.3400001525878906 ZM 33.357975006103516 1.5400009155273438 L 27.777976989746094 1.5400009155273438 C 27.837976455688477 1.0466670989990234 27.97464370727539 0.5833339691162109 28.187976837158203 0.14999961853027344 C 28.407976150512695 -0.29000091552734375 28.684642791748047 -0.6733341217041016 29.017976760864258 -1 C 29.344642639160156 -1.333333969116211 29.721309661865234 -1.5966663360595703 30.14797592163086 -1.7900009155273438 C 30.567975997924805 -1.9766674041748047 31.011310577392578 -2.0699996948242188 31.477975845336914 -2.0699996948242188 L 38.41797637939453 -2.0699996948242188 L 38.41797637939453 26.360000610351562 L 46.23797607421875 26.360000610351562 L 46.23797607421875 -2.0699996948242188 L 51.30797576904297 -2.0699996948242188 L 51.30797576904297 26.360000610351562 L 59.12797546386719 26.360000610351562 L 59.12797546386719 -2.0699996948242188 L 64.18797302246094 -2.0699996948242188 L 64.18797302246094 24.630001068115234 C 64.18797302246094 25.376667022705078 64.08130645751953 26.073333740234375 63.86797332763672 26.719999313354492 C 63.654640197753906 27.373332977294922 63.36463928222656 27.940000534057617 62.99797821044922 28.420000076293945 C 62.631309509277344 28.906665802001953 62.20464324951172 29.293333053588867 61.717979431152344 29.579999923706055 C 61.23130798339844 29.860000610351562 60.707977294921875 30 60.14797592163086 30 L 52.25797653198242 30 C 51.571311950683594 30 50.91797637939453 29.763334274291992 50.2979736328125 29.290000915527344 C 49.677978515625 28.816667556762695 49.16130828857422 28.18000030517578 48.74797821044922 27.380001068115234 C 48.34130859375 28.18000030517578 47.82797622680664 28.816667556762695 47.207977294921875 29.290000915527344 C 46.587974548339844 29.763334274291992 45.93130874633789 30 45.23797607421875 30 L 37.39797592163086 30 C 36.85131072998047 30 36.3313102722168 29.860000610351562 35.837974548339844 29.579999923706055 C 35.344642639160156 29.293333053588867 34.914642333984375 28.906665802001953 34.547977447509766 28.420000076293945 C 34.18130874633789 27.940000534057617 33.89131164550781 27.373332977294922 33.677974700927734 26.719999313354492 C 33.46464157104492 26.073333740234375 33.357975006103516 25.376667022705078 33.357975006103516 24.630001068115234 L 33.357975006103516 1.5400009155273438 Z" transform="matrix(0.8630796074867249, 0, 0, 0.8630796074867249, 2.4166717529296875, 18.60683250427246)" style="fill: rgb(255, 255, 255); white-space: pre; color: rgb(255, 255, 255);"/></g></svg>